<?xml version="1.0" encoding="utf-8"?>
<!-- Generator: Adobe Illustrator 20.0.0, SVG Export Plug-In . SVG Version: 6.00 Build 0)  -->
<!DOCTYPE svg PUBLIC "-//W3C//DTD SVG 1.1//EN" "http://www.w3.org/Graphics/SVG/1.1/DTD/svg11.dtd">
<svg version="1.1" id="Layer_2" xmlns="http://www.w3.org/2000/svg" xmlns:xlink="http://www.w3.org/1999/xlink" x="0px" y="0px"
	 viewBox="0 0 139.89 83.123" style="enable-background:new 0 0 139.89 83.123;" xml:space="preserve">
<style type="text/css">
	.st0{fill:#FFFFFF;}
</style>
<g>
	<polygon class="st0" points="60.615,53.546 62.775,53.546 62.775,35.521 60.615,35.521 60.615,47.518 60.673,49.307 60.615,49.307 
		59.918,47.518 53.554,35.521 51.44,35.521 51.44,53.546 53.6,53.546 53.6,41.73 53.554,39.86 54.423,41.753 	"/>
	<polygon class="st0" points="76.416,53.546 78.576,53.546 78.576,35.521 76.283,35.521 72.112,47.391 67.949,35.521 65.591,35.521 
		65.591,53.546 67.484,53.546 67.484,42.06 67.427,40.48 67.488,40.48 67.941,42.06 70.766,49.946 73.111,49.946 75.901,42.06 
		76.413,40.48 76.475,40.48 76.416,42.06 	"/>
	<path class="st0" d="M94.546,49.634c-0.857,1.436-2.067,2.153-3.63,2.153c-1.105,0-2.281-0.293-3.529-0.879v2.108
		c1.113,0.353,2.259,0.53,3.439,0.53c2.194,0,3.935-0.847,5.219-2.542c1.286-1.695,1.928-4,1.928-6.916
		c0-2.638-0.505-4.812-1.517-6.522c-1.011-1.709-2.538-2.564-4.582-2.564c-1.737,0-3.136,0.615-4.2,1.843
		c-1.064,1.229-1.596,2.671-1.596,4.324c0,1.053,0.215,1.977,0.643,2.773c0.428,0.797,1.05,1.415,1.865,1.854
		c0.815,0.44,1.678,0.66,2.587,0.66c0.962,0,1.844-0.254,2.644-0.761c0.801-0.508,1.471-1.163,2.013-1.967v0.451
		C95.831,46.38,95.403,48.199,94.546,49.634z M93.976,43.518c-0.68,0.793-1.55,1.19-2.609,1.19c-1.022,0-1.81-0.342-2.361-1.026
		c-0.553-0.684-0.828-1.556-0.828-2.615c0-0.827,0.163-1.585,0.49-2.277c0.326-0.691,0.776-1.204,1.347-1.539
		c0.571-0.334,1.139-0.501,1.702-0.501c0.857,0,1.619,0.363,2.283,1.088c0.666,0.726,0.998,1.66,0.998,2.802
		C94.997,41.765,94.656,42.725,93.976,43.518z"/>
	<path class="st0" d="M106.057,35.001c-1.984,0-3.501,0.836-4.548,2.509c-1.049,1.672-1.574,3.925-1.574,6.758
		c0,2.841,0.525,5.097,1.574,6.77c1.048,1.672,2.564,2.508,4.548,2.508c1.991,0,3.51-0.836,4.554-2.508
		c1.044-1.673,1.568-3.929,1.568-6.77c0-2.833-0.523-5.086-1.568-6.758C109.567,35.837,108.048,35.001,106.057,35.001z
		 M102.257,45.72c-0.03-0.564-0.044-1.089-0.044-1.578c0-2.141,0.325-3.909,0.979-5.303c0.651-1.394,1.604-2.091,2.857-2.091
		c0.481,0,0.943,0.122,1.39,0.366c0.446,0.244,0.862,0.716,1.244,1.414l-6.042,9.479C102.415,47.046,102.288,46.284,102.257,45.72z
		 M109.001,49.403c-0.6,1.597-1.614,2.396-3.04,2.396c-0.517,0-0.986-0.137-1.406-0.412c-0.421-0.274-0.793-0.685-1.114-1.234
		l6-9.537c0.307,1.112,0.46,2.27,0.46,3.472C109.9,46.034,109.6,47.806,109.001,49.403z"/>
	<path class="st0" d="M119.912,35.001c-1.984,0-3.501,0.836-4.549,2.509c-1.049,1.672-1.573,3.925-1.573,6.758
		c0,2.841,0.524,5.097,1.573,6.77c1.048,1.672,2.564,2.508,4.549,2.508c1.991,0,3.51-0.836,4.554-2.508
		c1.044-1.673,1.568-3.929,1.568-6.77c0-2.833-0.523-5.086-1.568-6.758C123.422,35.837,121.903,35.001,119.912,35.001z
		 M116.112,45.72c-0.03-0.564-0.044-1.089-0.044-1.578c0-2.141,0.325-3.909,0.979-5.303c0.651-1.394,1.604-2.091,2.857-2.091
		c0.481,0,0.943,0.122,1.39,0.366c0.446,0.244,0.862,0.716,1.244,1.414l-6.042,9.479C116.27,47.046,116.143,46.284,116.112,45.72z
		 M122.856,49.403c-0.6,1.597-1.614,2.396-3.04,2.396c-0.517,0-0.986-0.137-1.406-0.412c-0.421-0.274-0.793-0.685-1.114-1.234
		l6-9.537c0.307,1.112,0.46,2.27,0.46,3.472C123.756,46.034,123.455,47.806,122.856,49.403z"/>
	<path class="st0" d="M138.322,37.51c-1.044-1.673-2.563-2.509-4.554-2.509c-1.984,0-3.501,0.836-4.548,2.509
		c-1.049,1.672-1.574,3.925-1.574,6.758c0,2.841,0.525,5.097,1.574,6.77c1.048,1.672,2.564,2.508,4.548,2.508
		c1.991,0,3.51-0.836,4.554-2.508c1.044-1.673,1.568-3.929,1.568-6.77C139.89,41.435,139.366,39.182,138.322,37.51z M129.968,45.72
		c-0.03-0.564-0.044-1.089-0.044-1.578c0-2.141,0.325-3.909,0.979-5.303c0.651-1.394,1.604-2.091,2.857-2.091
		c0.481,0,0.943,0.122,1.39,0.366c0.446,0.244,0.862,0.716,1.244,1.414l-6.042,9.479C130.126,47.046,129.999,46.284,129.968,45.72z
		 M136.712,49.403c-0.6,1.597-1.614,2.396-3.04,2.396c-0.517,0-0.986-0.137-1.406-0.412c-0.421-0.274-0.793-0.685-1.114-1.234
		l6-9.537c0.307,1.112,0.46,2.27,0.46,3.472C137.611,46.034,137.311,47.806,136.712,49.403z"/>
	<path class="st0" d="M78.515,68.637l-8.879-8.878l-8.843,8.843l-8.806-8.806l-0.7,0.572c-1.788,1.461-3.542,2.894-5.173,4.219
		c-5.365-5.005-8.426-12.02-8.426-19.377c0-10.077,5.602-19.144,14.621-23.676l0.31-0.112l8.174,8.173l8.843-8.843l8.879,8.878
		l8.843-8.844l8.879,8.879l7.095-7.094l-0.404-0.67c-3.961-6.57-9.567-12.066-16.216-15.896l-0.937-0.54l-0.466,0.976
		c-1.137,2.387-3.571,3.93-6.204,3.93c-3.792,0-6.877-3.085-6.877-6.877c0-0.529,0.069-1.081,0.206-1.638l-0.809-1.224
		c-5.062-0.841-9.842-0.827-14.646-0.057l-0.812,1.232c0.145,0.573,0.218,1.141,0.218,1.688c0,3.792-3.085,6.877-6.876,6.877
		c-2.677,0-5.13-1.578-6.249-4.02L41.857,5.9C29.9,12.705,21.803,24.558,19.597,37.875C8.052,43.159,0,54.801,0,68.307
		c0,4.943,1.06,9.712,3.148,14.174l0.27,0.576l85.375,0.066l0.25-0.166c4.033-2.664,7.586-5.917,10.56-9.667l0.554-0.699
		L87.358,59.794L78.515,68.637z M88.189,81.123L4.696,81.057C2.907,77.029,2,72.742,2,68.307c0-12.239,7.037-22.845,17.266-28.045
		c-0.181,1.635-0.297,3.283-0.297,4.949c0,6.622,1.489,13.007,4.168,18.825c0.556-0.389,1.147-0.689,1.774-0.915
		c-2.536-5.539-3.942-11.613-3.942-17.91c0-15.154,8.018-29.258,20.993-37.056c1.604,2.592,4.461,4.217,7.548,4.217
		c4.895,0,8.876-3.982,8.876-8.877c0-0.361-0.024-0.727-0.072-1.096c3.946-0.537,7.842-0.545,11.979,0.051
		c-0.043,0.352-0.065,0.701-0.065,1.045c0,4.895,3.982,8.877,8.877,8.877c3.034,0,5.865-1.585,7.481-4.116
		c5.751,3.496,10.64,8.313,14.219,14.014l-4.568,4.568l-8.879-8.879l-8.843,8.844l-8.879-8.878l-8.843,8.843l-7.66-7.659
		l-1.56,0.566l-0.106,0.045c-9.732,4.865-15.778,14.632-15.778,25.491c0,8.215,3.548,16.032,9.733,21.447l0.634,0.556l0.655-0.532
		c1.606-1.305,3.351-2.729,5.142-4.191l8.94,8.94l8.843-8.843l8.879,8.878l8.843-8.843l10.117,10.117
		C94.813,75.957,91.694,78.774,88.189,81.123z"/>
</g>
</svg>
